<svg width="967" height="330" viewBox="0 0 967 330" fill="none" xmlns="http://www.w3.org/2000/svg">
<path d="M60.5583 175.152L24.8892 200.332C10.3032 210.629 4.70909 229.602 11.3757 246.166C21.0156 270.116 49.6025 280.017 71.9907 267.159L122.599 238.094C145.634 224.864 171.734 217.903 198.299 217.903H222.852C290.455 217.903 355.904 241.684 407.738 285.083C442.394 314.1 486.154 330 531.354 330H575.712C625.47 330 673.243 310.48 708.764 275.636L765.182 220.292C790.004 195.943 798.161 159.261 785.998 126.687L780.926 113.104C774.17 95.012 751.156 89.6566 737.107 102.907L646.03 188.804C619.678 213.657 584.824 227.5 548.601 227.5H487.551C461.214 227.5 435.803 217.776 416.194 200.194L413.799 198.048C371.217 159.869 318.304 135.122 261.704 126.916C190.953 116.657 118.962 133.921 60.5583 175.152Z" fill="white"/>
<ellipse cx="844.5" cy="135.5" rx="122.5" ry="67.5" fill="white"/>
<path d="M838.812 36.6375C845.13 22.5343 865.112 22.4242 871.585 36.457L886.436 68.6558C887.964 71.9688 885.544 75.75 881.896 75.75H829.01C825.386 75.75 822.966 72.0139 824.447 68.706L838.812 36.6375Z" fill="white"/>
<circle cx="857" cy="55" r="13" fill="#FDC3AD"/>
<circle cx="916" cy="109" r="13" fill="#212121"/>
<ellipse cx="850.5" cy="143" rx="19.5" ry="13" fill="#FDC3AD"/>
<ellipse cx="957.04" cy="115.738" rx="11.3898" ry="7.43351" transform="rotate(76.0496 957.04 115.738)" fill="#DAA397"/>
<path d="M58.5 156.174L35.0878 184.042C30.0484 190.041 37.1637 198.525 43.948 194.607L82.65 172.257C100.895 161.721 121.592 156.174 142.66 156.174H178.586C181.624 156.174 184.655 156.457 187.64 157.018L257.305 170.116L405.61 198L428.634 212.786C440.664 220.512 454.158 225.675 468.273 227.952L502.671 233.5H572.186C580.859 233.5 589.329 230.877 596.485 225.976L678.039 170.116L717.295 127.039L779 79.7209L748.5 79.721L692 98.5L678.039 113.5L661 127.039L639 113.5V127.039V137.457H603.5L599.5 160.031L560 150L537.81 174.891L505.5 156.174L467.298 160.031H458.5H428L393.5 156.174L359 146.5L338.5 142.233L313.5 113.5L264.5 127.039L223 113.5L193 127.039L161.5 113.5L126.5 127.039L85.5 118L58.5 156.174Z" fill="#28AEA5"/>
</svg>
