<svg width="967" height="330" viewBox="0 0 967 330" fill="none" xmlns="http://www.w3.org/2000/svg">
<g id="dragon">
<g id="dragonHead">
<ellipse id="Ellipse 43" cx="844.5" cy="135" rx="122.5" ry="67.5" fill="white"/>
<path id="Polygon 8" d="M838.812 36.1375C845.13 22.0343 865.112 21.9242 871.585 35.957L886.436 68.1558C887.964 71.4688 885.544 75.25 881.896 75.25H829.01C825.386 75.25 822.966 71.5139 824.447 68.206L838.812 36.1375Z" fill="white"/>
<circle id="Ellipse 44" cx="857" cy="54.5" r="13" fill="#FDC3AD"/>
<circle id="Ellipse 46" cx="916" cy="108.5" r="13" fill="#212121"/>
<ellipse id="Ellipse 45" cx="850.5" cy="142.5" rx="19.5" ry="13" fill="#FDC3AD"/>
<ellipse id="Ellipse 47" cx="957.04" cy="115.238" rx="11.3898" ry="7.43351" transform="rotate(76.0496 957.04 115.238)" fill="#DAA397"/>
</g>
<g id="dragonBody">
<path id="Vector 13" d="M60.5583 174.652L24.8892 199.832C10.3032 210.129 4.70909 229.102 11.3757 245.666C21.0156 269.616 49.6025 279.517 71.9907 266.659L122.599 237.594C145.634 224.364 171.734 217.403 198.299 217.403H222.852C290.455 217.403 355.904 241.184 407.738 284.583C442.394 313.6 486.154 329.5 531.354 329.5H575.712C625.47 329.5 673.243 309.98 708.764 275.136L765.182 219.792C790.004 195.443 798.161 158.761 785.998 126.187L780.926 112.604C774.17 94.512 751.156 89.1566 737.107 102.407L646.03 188.304C619.678 213.157 584.824 227 548.601 227H487.551C461.214 227 435.803 217.276 416.194 199.694L413.799 197.548C371.217 159.369 318.304 134.622 261.704 126.416C190.953 116.157 118.962 133.421 60.5583 174.652Z" fill="white"/>
<path id="Vector 16" d="M58.5 155.674L35.0878 183.542C30.0484 189.541 37.1637 198.025 43.948 194.107L82.65 171.757C100.895 161.221 121.592 155.674 142.66 155.674H178.586C181.624 155.674 184.655 155.957 187.64 156.518L257.305 169.616L405.61 197.5L428.634 212.286C440.664 220.012 454.158 225.175 468.273 227.452L502.671 233H572.186C580.859 233 589.329 230.377 596.485 225.476L678.039 169.616L717.295 126.539L779 79.2209L748.5 79.221L692 98L678.039 113L661 126.539L639 113V126.539V136.957H603.5L599.5 159.531L560 149.5L537.81 174.391L505.5 155.674L467.298 159.531H458.5H428L393.5 155.674L359 146L338.5 141.733L313.5 113L264.5 126.539L223 113L193 126.539L161.5 113L126.5 126.539L85.5 117.5L58.5 155.674Z" fill="#28AEA5"/>
</g>
</g>
</svg>
