<svg width="998" height="330" viewBox="0 0 998 330" fill="none" xmlns="http://www.w3.org/2000/svg">
<path d="M91.5583 175.152L55.8892 200.332C41.3032 210.629 35.7091 229.602 42.3757 246.166C52.0156 270.116 80.6025 280.017 102.991 267.159L153.599 238.094C176.634 224.864 202.734 217.903 229.299 217.903H253.852C321.455 217.903 386.904 241.684 438.738 285.083C473.394 314.1 517.154 330 562.354 330H606.712C656.47 330 704.243 310.48 739.764 275.636L796.182 220.292C821.004 195.943 829.161 159.261 816.998 126.687L811.926 113.104C805.17 95.012 782.156 89.6566 768.107 102.907L677.03 188.804C650.678 213.657 615.824 227.5 579.601 227.5H518.551C492.214 227.5 466.803 217.776 447.194 200.194L444.799 198.048C402.217 159.869 349.304 135.122 292.704 126.916C221.953 116.657 149.962 133.921 91.5583 175.152Z" fill="white"/>
<ellipse cx="875.5" cy="135.5" rx="122.5" ry="67.5" fill="white"/>
<path d="M17 227L43.158 201.02C101.598 142.979 185.773 119.059 266.002 137.694V137.694C271.751 139.029 277.635 139.704 283.538 139.704H287.033C338.444 139.704 387.619 160.724 423.144 197.886L426.551 201.45L466.053 217.87L503.269 225.325C508.83 226.439 514.489 227 520.161 227H586.491L596.515 225.6C631.808 220.671 663.448 201.252 683.824 172.016L715.78 126.163L768.837 82.8709C787.758 67.4321 811.43 59 835.85 59H847" stroke="#55908A" stroke-width="47"/>
<path d="M869.812 36.6375C876.13 22.5343 896.112 22.4242 902.585 36.457L917.436 68.6558C918.964 71.9688 916.544 75.75 912.896 75.75H860.01C856.386 75.75 853.966 72.0139 855.447 68.706L869.812 36.6375Z" fill="white"/>
<circle cx="888" cy="55" r="13" fill="#FDC3AD"/>
<circle cx="947" cy="109" r="13" fill="#212121"/>
<ellipse cx="881.5" cy="143" rx="19.5" ry="13" fill="#FDC3AD"/>
<ellipse cx="988.04" cy="115.738" rx="11.3898" ry="7.43351" transform="rotate(76.0496 988.04 115.738)" fill="#DAA397"/>
</svg>
