<svg width="321" height="236" viewBox="0 0 321 236" fill="none" xmlns="http://www.w3.org/2000/svg">
<path d="M18.883 70.1402L18.0484 71.6965C6.20021 93.7884 0 118.468 0 143.536V188C0 196.837 7.16345 204 16 204H305C313.837 204 321 196.837 321 188V139.516C321 117.035 315.868 94.8506 305.994 74.6535C283.662 28.9697 237.254 0 186.404 0H136.091C87.0828 0 42.0457 26.9514 18.883 70.1402Z" fill="#6DBD5C"/>
<circle cx="77" cy="81" r="38" fill="white"/>
<circle cx="64" cy="69" r="13" fill="black"/>
<circle cx="69" cy="74" r="4" fill="white"/>
<circle cx="241" cy="81" r="38" fill="white"/>
<circle cx="257" cy="69" r="13" fill="black"/>
<circle cx="261" cy="74" r="4" fill="white"/>
<path d="M0 174H321V198.348C321 207.878 313.94 215.934 304.492 217.184L226.5 227.5L157.5 235.5L62.5 227.5L15.2738 218.055C6.39272 216.279 0 208.481 0 199.424V174Z" fill="black"/>
<path d="M88.5035 131.477L162.5 107L170.71 135.197L101.942 163.794L88.5035 131.477Z" fill="black"/>
<path d="M51.0409 9L125.349 32.5124L115.484 60.174L43 43.0638L51.0409 9Z" fill="black"/>
<path d="M273.033 41.8368L198.102 63.2846L191.046 34.777L260.919 9L273.033 41.8368Z" fill="black"/>
<path d="M160.5 107L227.573 134.331L212.86 166.088L155.369 139.452L160.5 107Z" fill="black"/>
</svg>
