<svg width="180" height="235" viewBox="0 0 180 235" fill="none" xmlns="http://www.w3.org/2000/svg">
<path d="M28.0874 67.6275L30.0155 64.4576C39.6308 48.6494 56.7942 39 75.297 39H78.8449C97.3377 39 114.255 49.4112 122.588 65.9201L124.95 70.5999C131.906 84.379 135.883 99.4676 136.624 114.885L138 143.5L144.032 167.126C147.995 182.648 150 198.604 150 214.624V230.064C150 232.238 148.238 234 146.064 234H4C2.34315 234 1 232.657 1 231L2.76472 202.47C3.58642 189.186 5.65724 176.009 8.94976 163.113L16 135.5V110.76C16 95.5463 20.1814 80.6255 28.0874 67.6275Z" fill="#2D2B2B" stroke="black"/>
<ellipse cx="77" cy="99" rx="50" ry="53" fill="white"/>
<ellipse cx="52.5" cy="93" rx="6.5" ry="6" fill="#1B1C17"/>
<path d="M50.6351 68.1377C51.1049 66.0876 54.0147 66.0589 54.5249 68.0994L58.1894 82.7575C58.3472 83.3886 57.8698 84 57.2192 84H48.2551C47.6126 84 47.1368 83.4029 47.2804 82.7766L50.6351 68.1377Z" fill="#767183"/>
<path d="M54.0402 118.03C53.5258 120.069 50.6161 120.034 50.1505 117.983L46.8058 103.249C46.6618 102.615 47.1524 102.014 47.8028 102.028L56.7648 102.223C57.4071 102.237 57.8698 102.844 57.7127 103.467L54.0402 118.03Z" fill="#767183"/>
<ellipse cx="104.5" cy="93" rx="6.5" ry="6" fill="#1B1C17"/>
<path d="M102.635 68.1377C103.105 66.0876 106.015 66.0589 106.525 68.0994L110.189 82.7575C110.347 83.3886 109.87 84 109.219 84H100.255C99.6126 84 99.1368 83.4029 99.2804 82.7766L102.635 68.1377Z" fill="#767183"/>
<path d="M106.04 118.03C105.526 120.069 102.616 120.034 102.151 117.983L98.8058 103.249C98.6618 102.615 99.1524 102.014 99.8028 102.028L108.765 102.223C109.407 102.237 109.87 102.844 109.713 103.467L106.04 118.03Z" fill="#767183"/>
<path d="M65 117L66.1641 117.931C68.6754 119.94 71.6792 121.24 74.863 121.695L75.4919 121.785C76.4933 121.928 77.5087 121.943 78.5141 121.832L80.7174 121.587C84.1154 121.209 87.2487 119.573 89.5 117V117" stroke="black" stroke-width="3"/>
<ellipse cx="153.942" cy="15.5" rx="5.5" ry="6.5" fill="#030311"/>
<path d="M152.442 10.3226L147.442 3.32257" stroke="black"/>
<path d="M153.442 9.32257L153.336 9.08156C152.039 6.14412 150.086 3.54307 147.627 1.47837L147.442 1.32257" stroke="black"/>
<path d="M155.55 10.2171V10.2171C155.325 6.1948 152.823 2.62246 149.135 1V1" stroke="black"/>
<path d="M156.642 10.8354L156.323 7.46211C156.169 5.83611 155.591 4.27885 154.648 2.9455V2.9455" stroke="black"/>
<circle cx="157.442" cy="11" r="3" fill="white"/>
<circle cx="156.942" cy="12.5" r="0.5" fill="black"/>
<circle cx="150.442" cy="11" r="3" fill="white"/>
<circle cx="150.942" cy="12.5" r="0.5" fill="black"/>
<path d="M155.926 13.8421C154.785 12.8671 153.099 12.8851 151.979 13.8841L148.063 17.3786C147.373 17.9936 147.815 19.1345 148.739 19.1247L159.277 19.0124C160.201 19.0026 160.618 17.8525 159.916 17.2523L155.926 13.8421Z" fill="#A59466"/>
<path d="M151.52 20L150.416 21.422C148.559 23.8117 148.028 26.9744 149.002 29.8395L149.736 32M155.344 20L157.313 22.2211C159.273 24.4312 160.023 27.462 159.321 30.331L158.912 32" stroke="black"/>
<ellipse cx="153.844" cy="75.2309" rx="19.5459" ry="21.1747" fill="#9B938C"/>
<path d="M139.436 42.727L139.945 39.3968L141.626 33.4865C142.012 32.1286 142.846 30.9412 143.992 30.1174C145.519 29.0198 147.353 28.4294 149.233 28.4294H155.93C157.911 28.4294 159.81 29.2151 161.212 30.614C162.847 32.2458 164.208 34.1438 165.019 36.3068C165.497 37.582 165.978 39.035 166.222 40.2701C166.814 43.2702 167.961 48.1925 167.961 48.1925L168.417 49.7895C168.547 50.2445 168.645 50.7081 168.709 51.1769L169.373 56.0108L169.172 57.3833C168.83 59.7342 167.181 61.6862 164.92 62.4175H161.714C160.192 62.4175 158.701 61.9813 157.419 61.1606C156.921 60.8423 156.477 60.4475 156.103 59.9907L155.065 58.7255C153.855 60.8093 151.628 62.0917 149.218 62.0917H147.159C145.619 62.0917 144.09 61.8269 142.64 61.3088L142.461 61.245C140.236 60.4504 138.751 58.343 138.751 55.9805V51.7555C138.751 48.733 138.98 45.7148 139.436 42.727Z" fill="#9B938C"/>
<ellipse cx="143.094" cy="29.2981" rx="5.75517" ry="5.4294" fill="#C4C4C4"/>
<ellipse cx="143.094" cy="29.2981" rx="3.14905" ry="3.04047" fill="#8E736F"/>
<ellipse cx="162.206" cy="28.4294" rx="5.75517" ry="5.4294" fill="#C4C4C4"/>
<ellipse cx="162.206" cy="28.4294" rx="3.14905" ry="3.04047" fill="#8E736F"/>
<ellipse cx="153.844" cy="46.2378" rx="1.52023" ry="0.868705" fill="#8E736F"/>
<circle cx="147.981" cy="39.5054" r="3.90917" fill="white"/>
<circle r="1.30306" transform="matrix(1 0 0 -1 147.981 39.5055)" fill="black"/>
<circle cx="159.057" cy="39.5054" r="3.90917" fill="white"/>
<circle r="1.30306" transform="matrix(1 0 0 -1 159.057 39.5055)" fill="black"/>
<path d="M133.348 65.7481C130.394 64.9533 128.29 63.2293 128.649 61.8973C129.007 60.5654 131.692 60.1299 134.646 60.9246C137.599 61.7193 139.703 63.4434 139.344 64.7753C138.986 66.1073 136.301 66.5428 133.348 65.7481Z" fill="#9B938C"/>
<path d="M133.348 65.7481C130.394 64.9533 128.29 63.2293 128.649 61.8973C129.007 60.5654 131.692 60.1299 134.646 60.9246C137.599 61.7193 139.703 63.4434 139.344 64.7753C138.986 66.1073 136.301 66.5428 133.348 65.7481Z" stroke="#0B0B0B"/>
<path d="M173.309 68.5714C170.355 67.7766 168.251 66.0526 168.61 64.7206C168.968 63.3887 171.653 62.9532 174.607 63.7479C177.56 64.5426 179.664 66.2667 179.305 67.5986C178.947 68.9306 176.262 69.3661 173.309 68.5714Z" fill="#9B938C"/>
<path d="M173.309 68.5714C170.355 67.7766 168.251 66.0526 168.61 64.7206C168.968 63.3887 171.653 62.9532 174.607 63.7479C177.56 64.5426 179.664 66.2667 179.305 67.5986C178.947 68.9306 176.262 69.3661 173.309 68.5714Z" stroke="#0B0B0B"/>
<ellipse cx="153.844" cy="77.4026" rx="10.8588" ry="14.0079" fill="#C4C4C4"/>
</svg>
