<svg width="212" height="274" viewBox="0 0 212 274" fill="none" xmlns="http://www.w3.org/2000/svg">
<path d="M34.1305 92.3955L43.1093 79.267C52.2922 65.84 67.1324 57.3736 83.3639 56.3015L95.5 55.5L109.168 56.351C125.686 57.3795 140.569 66.6767 148.738 81.0702L155.313 92.6546C163.781 107.575 168.642 124.269 169.507 141.403L169.98 150.765C170.832 167.64 173.616 184.362 178.278 200.602L181.002 210.09C184.318 221.639 186 233.596 186 245.612C186 259.753 174.759 271.332 160.624 271.75L101.5 273.5L24.4291 271.543C12.0759 271.23 1.77332 262.004 0.103717 249.76C0.0347873 249.255 0.0224633 248.743 0.0669735 248.235L1.21697 235.104C2.40291 221.563 4.88841 208.168 8.63915 195.103L14.0557 176.235C16.504 167.707 18.0518 158.945 18.6738 150.094L19.8448 133.432C20.8781 118.727 25.809 104.563 34.1305 92.3955Z" fill="#2D2B2B"/>
<ellipse cx="95" cy="120" rx="59" ry="57" fill="white"/>
<ellipse cx="67.5" cy="108" rx="6.5" ry="6" fill="#1B1C17"/>
<path d="M65.6351 83.1373C66.1049 81.0872 69.0147 81.0585 69.5248 83.099L73.1894 97.757C73.3471 98.3882 72.8698 98.9996 72.2192 98.9996H63.2551C62.6126 98.9996 62.1368 98.4024 62.2803 97.7762L65.6351 83.1373Z" fill="#767183"/>
<path d="M69.0402 133.029C68.5258 135.069 65.6161 135.034 65.1505 132.983L61.8058 118.249C61.6618 117.614 62.1524 117.013 62.8028 117.027L71.7648 117.223C72.4071 117.236 72.8698 117.844 72.7127 118.467L69.0402 133.029Z" fill="#767183"/>
<ellipse cx="122.5" cy="108" rx="6.5" ry="6" fill="#1B1C17"/>
<path d="M120.635 83.1373C121.105 81.0872 124.015 81.0585 124.525 83.099L128.189 97.757C128.347 98.3882 127.87 98.9996 127.219 98.9996H118.255C117.613 98.9996 117.137 98.4024 117.28 97.7762L120.635 83.1373Z" fill="#767183"/>
<path d="M124.04 133.029C123.526 135.069 120.616 135.034 120.151 132.983L116.806 118.249C116.662 117.614 117.152 117.013 117.803 117.027L126.765 117.223C127.407 117.236 127.87 117.844 127.713 118.467L124.04 133.029Z" fill="#767183"/>
<path d="M83 141L84.1641 141.931C86.6754 143.94 89.6792 145.239 92.863 145.694L93.4919 145.784C94.4933 145.927 95.5087 145.943 96.5141 145.831L98.7174 145.587C102.115 145.209 105.249 143.573 107.5 141V141" stroke="black" stroke-width="3"/>
<ellipse cx="185.905" cy="48.2967" rx="17.9402" ry="21.202" fill="#030311"/>
<path d="M181.012 31.4089L164.703 8.57593" stroke="black"/>
<path d="M184.274 28.147L179.47 17.262C178.174 14.3245 176.221 11.7235 173.762 9.65878L164.703 2.05219" stroke="black"/>
<path d="M191.151 31.0647V31.0647C190.418 17.9447 182.255 6.2922 170.227 1V1" stroke="black"/>
<path d="M194.712 33.0814L193.381 19.0287C193.069 15.7231 191.895 12.5572 189.977 9.84658L188.208 7.34583" stroke="black"/>
<circle cx="197.321" cy="33.6185" r="9.78554" fill="white"/>
<circle cx="195.691" cy="38.5113" r="1.63092" fill="black"/>
<circle cx="174.488" cy="33.6185" r="9.78554" fill="white"/>
<circle cx="176.119" cy="38.5113" r="1.63092" fill="black"/>
<path d="M187.871 39.0391C186.73 38.0641 185.045 38.082 183.925 39.0811L162.23 58.438C161.54 59.0531 161.982 60.194 162.906 60.1842L209.335 59.6895C210.259 59.6797 210.676 58.5296 209.974 57.9294L187.871 39.0391Z" fill="#A59466"/>
</svg>
