<svg width="208" height="221" viewBox="0 0 208 221" fill="none" xmlns="http://www.w3.org/2000/svg">
<path d="M13.5335 62.8249L8.25667 77.1907C2.79508 92.0593 0 107.775 0 123.615V177C0 185.837 7.16344 193 16 193H192C200.837 193 208 185.837 208 177V120.771C208 106.795 205.737 92.911 201.3 79.658L197.2 67.4113C183.717 27.1432 146.005 -3.05176e-05 103.54 -3.05176e-05C63.3333 -3.05176e-05 27.3967 25.084 13.5335 62.8249Z" fill="#6DBD5C"/>
<circle cx="57.3843" cy="69.3842" r="31.3843" fill="white"/>
<circle cx="46.6476" cy="59.4734" r="10.7367" fill="black"/>
<circle cx="50.7771" cy="63.6029" r="3.30361" fill="white"/>
<circle cx="155.384" cy="70.3842" r="31.3843" fill="white"/>
<circle cx="168.599" cy="60.4734" r="10.7367" fill="black"/>
<circle cx="171.902" cy="64.6029" r="3.30361" fill="white"/>
<path d="M0 165L50 170L107.486 168L157 172.5L208 165V178.977C208 187.058 202.889 194.254 195.26 196.917L144.842 214.51L107.486 221L38.5337 205.793L12.7918 196.893C5.13586 194.246 0 187.037 0 178.936V165Z" fill="black"/>
<path d="M51.965 131.587C49.285 125.142 52.6498 117.779 59.2766 115.587L108.114 99.4322L114.894 122.72L58.0992 146.338L51.965 131.587Z" fill="black"/>
<path d="M35.641 6.99997L97.0125 26.4189L88.865 49.2647L29 35.1334L35.641 6.99997Z" fill="black"/>
<path d="M187.229 33.12L125.343 50.8338L119.515 27.2893L177.224 6.00001L187.229 33.12Z" fill="black"/>
<path d="M108.315 99.2415L149.821 116.181C157.744 119.415 161.36 128.611 157.763 136.375L152.216 148.347L104.159 126.082L108.315 99.2415Z" fill="black"/>
<line x1="44.5" y1="177" x2="44.5" y2="199" stroke="white"/>
<line x1="44.5" y1="177" x2="44.5" y2="199" stroke="white"/>
<line x1="44.5" y1="177" x2="44.5" y2="199" stroke="white"/>
<line x1="44.5" y1="177" x2="44.5" y2="199" stroke="white"/>
<line x1="26.5" y1="170" x2="26.5" y2="192" stroke="white"/>
<line x1="26.5" y1="170" x2="26.5" y2="192" stroke="white"/>
<line x1="26.5" y1="170" x2="26.5" y2="192" stroke="white"/>
<line x1="26.5" y1="170" x2="26.5" y2="192" stroke="white"/>
<line x1="65.5" y1="182" x2="65.5" y2="204" stroke="white"/>
<line x1="65.5" y1="182" x2="65.5" y2="204" stroke="white"/>
<line x1="65.5" y1="182" x2="65.5" y2="204" stroke="white"/>
<line x1="65.5" y1="182" x2="65.5" y2="204" stroke="white"/>
<line x1="163.5" y1="198.998" x2="163.592" y2="176.998" stroke="white"/>
<line x1="163.5" y1="198.998" x2="163.592" y2="176.998" stroke="white"/>
<line x1="163.5" y1="198.998" x2="163.592" y2="176.998" stroke="white"/>
<line x1="163.5" y1="198.998" x2="163.592" y2="176.998" stroke="white"/>
<line x1="182.363" y1="193.003" x2="181.5" y2="171.02" stroke="white"/>
<line x1="182.363" y1="193.003" x2="181.5" y2="171.02" stroke="white"/>
<line x1="182.363" y1="193.003" x2="181.5" y2="171.02" stroke="white"/>
<line x1="182.363" y1="193.003" x2="181.5" y2="171.02" stroke="white"/>
<line x1="97" y1="160" x2="117" y2="160" stroke="black" stroke-width="4"/>
<path d="M48 162L95.1698 139.872C101.738 136.791 109.348 136.846 115.87 140.023L161 162" stroke="black" stroke-width="5"/>
<path d="M143.615 204.833L143.803 182" stroke="white"/>
<path d="M143.615 204.833L143.803 182" stroke="white"/>
<path d="M143.615 204.833L143.803 182" stroke="white"/>
<path d="M143.615 204.833L143.803 182" stroke="white"/>
</svg>
