<svg width="93" height="47" viewBox="0 0 93 47" fill="none" xmlns="http://www.w3.org/2000/svg">
<g id="susuwataris">
<g id="susuwatari">
<path id="Vector 19" d="M79.5687 22.3617L79.0062 19.7286L79.5985 16.279L77.0649 13.3074L76.6716 9.68868L73.8864 8.32891L71.3504 5.22379L68.2244 5.70169L66.0388 3.52778L63.2966 4.85555L60.4843 4.2359L59.9168 6.81181L57.2836 7.37432L56.8605 9.83827L53.65 10.8089L54.536 14.5123L52.7192 16.2296L54.0283 17.469L51.9577 20.6647L54.6606 22.6508L53.9837 26.5931L57.4332 27.1854L59.8125 28.1012L61.037 29.8334L65.2332 29.032L67.5279 30.4406L69.1755 29.7089L71.5548 30.6247L73.8644 28.992L77.075 28.0214L77.0053 25.4728L79.5687 22.3617Z" fill="black"/>
<circle id="Ellipse 58" r="4" transform="matrix(0.976574 0.215181 0.215181 -0.976574 62.5876 14.5432)" fill="white"/>
<circle id="Ellipse 60" r="1" transform="matrix(0.976574 0.215181 0.215181 -0.976574 62.5876 14.5432)" fill="black"/>
<ellipse id="Ellipse 59" rx="4" ry="4.5" transform="matrix(0.976574 0.215181 0.215181 -0.976574 70.5078 15.7764)" fill="white"/>
<circle id="Ellipse 62" r="1" transform="matrix(0.976574 0.215181 0.215181 -0.976574 70.4002 16.2647)" fill="black"/>
</g>
<g id="susuwatari_2">
<path id="Vector 19_2" d="M58.2315 21.2552L57.1155 18.8047L56.9517 15.3086L53.8379 12.9517L52.6752 9.5024L49.6627 8.7738L46.5179 6.28713L43.568 7.42647L40.9658 5.7738L38.5735 7.66055L35.6938 7.66055L35.6938 10.2983L33.2434 11.4142L33.3604 13.9115L30.4339 15.5503L32.0961 18.9762L30.6914 21.0442L32.2366 21.9729L30.9021 25.5393L33.969 26.8972L34.1563 30.8928L37.6524 30.729L40.1731 31.1114L41.7417 32.5395L45.6671 30.8539L48.2111 31.7358L49.6627 30.6666L52.1833 31.0491L54.0875 28.9576L57.014 27.3188L56.3975 24.845L58.2315 21.2552Z" fill="black"/>
<circle id="Ellipse 58_2" r="4" transform="matrix(1 0 0 -1 39.9658 17.2738)" fill="white"/>
<circle id="Ellipse 60_2" r="1" transform="matrix(1 0 0 -1 39.9658 17.2738)" fill="black"/>
<ellipse id="Ellipse 59_2" rx="4" ry="4.5" transform="matrix(1 0 0 -1 47.9658 16.7738)" fill="white"/>
<circle id="Ellipse 62_2" r="1" transform="matrix(1 0 0 -1 47.9658 17.2738)" fill="black"/>
</g>
<g id="susuwatari_3">
<path id="Vector 19_3" d="M37.411 17.9206L35.9036 15.6895L35.1615 12.2691L31.6996 10.462L29.9802 7.25365L26.8886 7.03541L23.3745 5.10546L20.6548 6.71883L17.8142 5.52122L15.7685 7.77901L12.9288 8.2572L13.3668 10.8583L11.1357 12.3656L11.6658 14.8088L9.05203 16.9108L11.26 20.0132L10.2182 22.2857L11.8962 22.9449L11.1724 26.6834L14.4222 27.5132L15.2704 31.4222L18.6908 30.6801L21.24 30.6386L23.0239 31.7865L26.6149 29.4724L29.2701 29.9196L30.524 28.6243L33.0731 28.5828L34.6036 26.2042L37.2173 24.1022L36.1986 21.7651L37.411 17.9206Z" fill="black"/>
<circle id="Ellipse 58_3" r="4" transform="matrix(0.986117 -0.166054 -0.166054 -0.986117 18.7377 17.0276)" fill="white"/>
<circle id="Ellipse 60_3" r="1" transform="matrix(0.986117 -0.166054 -0.166054 -0.986117 18.7377 17.0276)" fill="black"/>
<ellipse id="Ellipse 59_3" rx="4" ry="4.5" transform="matrix(0.986117 -0.166054 -0.166054 -0.986117 26.5436 15.2061)" fill="white"/>
<circle id="Ellipse 62_3" r="1" transform="matrix(0.986117 -0.166054 -0.166054 -0.986117 26.6266 15.6992)" fill="black"/>
</g>
<g id="susuwatari_4">
<path id="Vector 19_4" d="M31.8508 26.626L30.0387 24.6344L28.8132 21.356L25.1277 20.0647L22.9655 17.1364L19.8745 17.3643L16.1198 15.9589L13.6599 17.946L10.6768 17.1686L8.97641 19.6968L6.23479 20.5777L7.0417 23.089L5.05011 24.901L5.92549 27.2428L3.64063 29.6982L6.27119 32.4515L5.56645 34.8501L7.32164 35.2615L7.14212 39.0652L10.4774 39.4198L11.878 43.1666L15.1565 41.941L17.6733 41.534L19.6035 42.4138L22.8251 39.6082L25.517 39.6695L26.5719 38.2076L29.0887 37.8006L30.2618 35.2269L32.5466 32.7714L31.2029 30.6047L31.8508 26.626Z" fill="black"/>
<circle id="Ellipse 58_4" r="4" transform="matrix(0.952059 -0.305914 -0.305914 -0.952059 13.2428 28.4232)" fill="white"/>
<circle id="Ellipse 60_4" r="1" transform="matrix(0.952059 -0.305914 -0.305914 -0.952059 13.2428 28.4232)" fill="black"/>
<ellipse id="Ellipse 59_4" rx="4" ry="4.5" transform="matrix(0.952059 -0.305914 -0.305914 -0.952059 20.7063 25.4999)" fill="white"/>
<circle id="Ellipse 62_4" r="1" transform="matrix(0.952059 -0.305914 -0.305914 -0.952059 20.8593 25.9759)" fill="black"/>
</g>
<g id="susuwatari_5">
<path id="Vector 19_5" d="M86.5822 34.4448L86.4385 31.756L87.5631 28.4416L85.5255 25.1103L85.7032 21.4745L83.165 19.6958L81.146 16.2322L77.9837 16.2152L76.165 13.7262L73.2489 14.6086L70.5682 13.5567L69.6047 16.0121L66.9159 16.1558L66.1126 18.5232L62.7897 18.9797L63.0856 22.7761L61.0225 24.1881L62.1216 25.617L59.5765 28.4494L61.9355 30.8338L60.6502 34.6217L63.9646 35.7463L66.1714 37.0231L67.1098 38.9256L71.3797 38.7904L73.4258 40.5406L75.1676 40.0757L77.3743 41.3524L79.9109 40.1011L83.2338 39.6446L83.5636 37.1165L86.5822 34.4448Z" fill="black"/>
<circle id="Ellipse 58_5" r="4" transform="matrix(0.93089 0.365299 0.365299 -0.93089 71.0331 24.0661)" fill="white"/>
<circle id="Ellipse 60_5" r="1" transform="matrix(0.93089 0.365299 0.365299 -0.93089 71.0331 24.0661)" fill="black"/>
<ellipse id="Ellipse 59_5" rx="4" ry="4.5" transform="matrix(0.93089 0.365299 0.365299 -0.93089 78.6629 26.5231)" fill="white"/>
<circle id="Ellipse 62_5" r="1" transform="matrix(0.93089 0.365299 0.365299 -0.93089 78.4803 26.9885)" fill="black"/>
</g>
<g id="susuwatari_6">
<path id="Vector 19_6" d="M70.2314 31.2552L69.1155 28.8047L68.9516 25.3086L65.8379 22.9517L64.6751 19.5024L61.6626 18.7738L58.5178 16.2871L55.5679 17.4265L52.9657 15.7738L50.5734 17.6605L47.6938 17.6605L47.6938 20.2983L45.2433 21.4142L45.3603 23.9115L42.4339 25.5503L44.0961 28.9762L42.6913 31.0442L44.2365 31.9729L42.902 35.5393L45.9689 36.8972L46.1562 40.8928L49.6524 40.729L52.173 41.1114L53.7416 42.5395L57.667 40.8539L60.2111 41.7358L61.6626 40.6666L64.1833 41.0491L66.0874 38.9576L69.0139 37.3188L68.3974 34.845L70.2314 31.2552Z" fill="black"/>
<circle id="Ellipse 58_6" r="4" transform="matrix(1 0 0 -1 51.9657 27.2738)" fill="white"/>
<circle id="Ellipse 60_6" r="1" transform="matrix(1 0 0 -1 51.9657 27.2738)" fill="black"/>
<ellipse id="Ellipse 59_6" rx="4" ry="4.5" transform="matrix(1 0 0 -1 59.9657 26.7738)" fill="white"/>
<circle id="Ellipse 62_6" r="1" transform="matrix(1 0 0 -1 59.9657 27.2738)" fill="black"/>
</g>
<g id="susuwatari_7">
<path id="Vector 19_7" d="M48.2314 31.2552L47.1155 28.8047L46.9516 25.3086L43.8379 22.9517L42.6751 19.5024L39.6626 18.7738L36.5178 16.2871L33.5679 17.4265L30.9657 15.7738L28.5734 17.6605L25.6938 17.6605L25.6938 20.2983L23.2433 21.4142L23.3603 23.9115L20.4339 25.5503L22.0961 28.9762L20.6913 31.0442L22.2365 31.9729L20.902 35.5393L23.9689 36.8972L24.1562 40.8928L27.6524 40.729L30.173 41.1114L31.7416 42.5395L35.667 40.8539L38.2111 41.7358L39.6626 40.6666L42.1833 41.0491L44.0874 38.9576L47.0139 37.3188L46.3974 34.845L48.2314 31.2552Z" fill="black"/>
<circle id="Ellipse 58_7" r="4" transform="matrix(1 0 0 -1 29.9657 27.2738)" fill="white"/>
<circle id="Ellipse 60_7" r="1" transform="matrix(1 0 0 -1 29.9657 27.2738)" fill="black"/>
<ellipse id="Ellipse 59_7" rx="4" ry="4.5" transform="matrix(1 0 0 -1 37.9657 26.7738)" fill="white"/>
<circle id="Ellipse 62_7" r="1" transform="matrix(1 0 0 -1 37.9657 27.2738)" fill="black"/>
</g>
</g>
</svg>
